#N canvas 305 291 1154 602 10;
#N canvas 899 280 886 564 gui 0;
#X obj 7 5 piLooper;
#X obj 100 100 cnv 15 480 320 empty empty empty 20 12 0 14 -33289 -66577
0;
#X obj 120 110 cnv 15 50 50 empty pos0_color empty 20 12 0 14 -260818
-262144 0;
#X obj 191 110 cnv 15 50 50 empty pos1_color empty 20 12 0 14 -260818
-262144 0;
#X obj 262 110 cnv 15 50 50 empty pos2_color empty 20 12 0 14 -260818
-262144 0;
#X obj 333 110 cnv 15 50 50 empty pos3_color empty 20 12 0 14 -260818
-262144 0;
#N canvas 1035 185 632 448 clockGUI 0;
#X obj 8 12 r clock_pos;
#X obj 8 37 route 0 1 2 3 4 5 6 7 8 9 10 11 12 13 14 15;
#X obj 12 107 clock_color pos0_color;
#X obj 29 135 clock_color pos1_color;
#X obj 43 163 clock_color pos2_color;
#X obj 55 190 clock_color pos3_color;
#X obj 252 107 clock_color bar_1_color;
#X obj 269 135 clock_color bar_2_color;
#X obj 281 164 clock_color bar_3_color;
#X obj 295 190 clock_color bar_4_color;
#X connect 0 0 1 0;
#X connect 1 0 2 0;
#X connect 1 0 5 1;
#X connect 1 0 6 0;
#X connect 1 0 9 1;
#X connect 1 1 3 0;
#X connect 1 1 2 1;
#X connect 1 2 4 0;
#X connect 1 2 3 1;
#X connect 1 3 5 0;
#X connect 1 3 4 1;
#X connect 1 4 2 0;
#X connect 1 4 5 1;
#X connect 1 4 7 0;
#X connect 1 4 6 1;
#X connect 1 5 3 0;
#X connect 1 5 2 1;
#X connect 1 6 4 0;
#X connect 1 6 3 1;
#X connect 1 7 5 0;
#X connect 1 7 4 1;
#X connect 1 8 2 0;
#X connect 1 8 5 1;
#X connect 1 8 8 0;
#X connect 1 8 7 1;
#X connect 1 9 3 0;
#X connect 1 9 2 1;
#X connect 1 10 4 0;
#X connect 1 10 3 1;
#X connect 1 11 5 0;
#X connect 1 11 4 1;
#X connect 1 12 2 0;
#X connect 1 12 5 1;
#X connect 1 12 9 0;
#X connect 1 12 8 1;
#X connect 1 13 3 0;
#X connect 1 13 2 1;
#X connect 1 14 4 0;
#X connect 1 14 3 1;
#X connect 1 15 5 0;
#X connect 1 15 4 1;
#X restore 7 32 pd clockGUI;
#X obj 414 121 cnv 15 100 50 empty empty BPM 0 0 0 28 -33289 -192512
0;
#N canvas 319 277 450 300 BPM_gui 0;
#X obj 45 13 r bpm_gui;
#X floatatom 128 14 5 0 0 0 - - -, f 5;
#X obj 45 49 int;
#X msg 133 149 \; gui_bpm_label label :\$1;
#X connect 0 0 2 0;
#X connect 1 0 2 0;
#X connect 2 0 3 0;
#X restore 7 59 pd BPM_gui;
#X obj 463 121 cnv 15 94 50 empty gui_bpm_label :0 0 0 0 28 -33289
-192512 0;
#X obj 174 150 cnv 10 10 10 empty bar_1_color empty 20 12 0 14 -260818
-262144 0;
#X obj 245 150 cnv 10 10 10 empty bar_2_color empty 20 12 0 14 -260818
-262144 0;
#X obj 316 150 cnv 10 10 10 empty bar_3_color empty 20 12 0 14 -260818
-262144 0;
#X obj 387 150 cnv 10 10 10 empty bar_4_color empty 20 12 0 14 -260818
-262144 0;
#X obj 111 385 bng 25 250 50 0 clearAll empty empty 17 7 0 10 -262144
-1 -1;
#X obj 131 385 bng 25 250 50 0 clearAll empty empty 17 7 0 10 -262144
-1 -1;
#X obj 151 385 bng 25 250 50 0 clearAll empty empty 17 7 0 10 -262144
-1 -1;
#X obj 170 385 bng 25 250 50 0 clearAll empty empty 17 7 0 10 -262144
-1 -1;
#X obj 110 385 cnv 15 85 25 empty empty Reset 0 12 0 28 -33289 -192512
0;
#X coords 0 -1 1 1 480 320 1 100 100;
#X restore 1 -1 pd gui;
